<?xml version="1.0" encoding="UTF-8" standalone="no"?>
<!-- Created with Inkscape (http://www.inkscape.org/) -->

<svg
   width="300"
   height="85"
   viewBox="0 0 79.374997 22.489584"
   version="1.1"
   id="svg5"
   inkscape:export-filename="C:\Users\filip\Desktop\Projekt 1\grafika\flagi1.png"
   inkscape:export-xdpi="120.94489"
   inkscape:export-ydpi="120.94489"
   inkscape:version="1.1 (c68e22c387, 2021-05-23)"
   sodipodi:docname="flagi1.svg"
   xmlns:inkscape="http://www.inkscape.org/namespaces/inkscape"
   xmlns:sodipodi="http://sodipodi.sourceforge.net/DTD/sodipodi-0.dtd"
   xmlns="http://www.w3.org/2000/svg"
   xmlns:svg="http://www.w3.org/2000/svg">
  <sodipodi:namedview
     id="namedview7"
     pagecolor="#505050"
     bordercolor="#ffffff"
     borderopacity="1"
     inkscape:pageshadow="0"
     inkscape:pageopacity="0"
     inkscape:pagecheckerboard="1"
     inkscape:document-units="mm"
     showgrid="false"
     units="px"
     inkscape:zoom="2.9647587"
     inkscape:cx="144.36251"
     inkscape:cy="31.874432"
     inkscape:window-width="1920"
     inkscape:window-height="1017"
     inkscape:window-x="-8"
     inkscape:window-y="746"
     inkscape:window-maximized="1"
     inkscape:current-layer="layer1" />
  <defs
     id="defs2">
    <rect
       x="112.31943"
       y="13.491823"
       width="83.649307"
       height="43.848427"
       id="rect31239" />
  </defs>
  <g
     inkscape:label="Warstwa 1"
     inkscape:groupmode="layer"
     id="layer1"
     style="display:inline">
    <rect
       style="fill:#aa0000;fill-opacity:1;stroke:none;stroke-width:0.397416"
       id="rect846"
       width="31.75"
       height="15.875"
       x="0"
       y="0" />
    <path
       sodipodi:type="star"
       style="fill:#ffff00;fill-opacity:0.0199276;stroke:#f4ff00;stroke-width:1;stroke-miterlimit:4;stroke-dasharray:none;stroke-opacity:0.927536"
       id="path1802"
       inkscape:flatsided="false"
       sodipodi:sides="5"
       sodipodi:cx="10.017168"
       sodipodi:cy="3.6371858"
       sodipodi:r1="4.8660073"
       sodipodi:r2="2.4330039"
       sodipodi:arg1="0.94200004"
       sodipodi:arg2="1.5703186"
       inkscape:rounded="0"
       inkscape:randomized="0"
       d="M 12.879216,7.5725015 10.01833,6.0701894 7.1588818,7.5752344 7.7036033,4.3901307 5.3886022,2.135718 8.5861441,1.6695277 10.014843,-1.228821 11.446311,1.6681613 14.644297,2.131296 12.331451,4.3879199 Z"
       transform="matrix(0.12184991,0,0,0.12184991,2.7009049,0.96980713)"
       inkscape:transform-center-x="8.7630209e-05"
       inkscape:transform-center-y="-0.056535818" />
    <path
       id="path6035"
       style="fill:#ffff00;fill-opacity:1;stroke:none;stroke-width:0.121849px;stroke-linecap:butt;stroke-linejoin:miter;stroke-opacity:1"
       d="m 4.0205363,2.3845321 0.2398921,0.065447 0.1742072,0.1089984 0.1454108,0.1161384 0.1089984,0.181823 0.094481,0.2106194 0.072587,0.1815851 0.029034,0.2108574 L 4.899664,3.692277 4.8706288,3.9466863 4.8480196,4.0209386 3.6935407,3.4162107 4.165947,2.7624573 3.3667829,2.9440422 2.7492038,3.6996545 3.2287499,4.0337898 3.2577845,3.9830982 3.5264731,3.6487249 4.7126058,4.2960525 4.696185,4.3172337 4.5655295,4.3536459 4.4056015,4.4478891 4.1876044,4.5497481 4.0640885,4.5714051 3.9260554,4.5278535 3.8244345,4.4916795 3.7373308,4.4843019 3.4902991,4.9202959 3.3377488,5.2253965 3.4974389,5.2908433 3.8244345,4.6513693 4.2530511,4.7532276 4.5436347,4.6732633 4.7980439,4.5423697 4.9156103,4.4069545 5.7497586,4.8622258 h 0.043552 l 0.079964,-0.021895 0.036412,-0.072587 0.014518,-0.087342 L 5.829723,4.5352291 5.12861,4.1680134 5.1831092,3.9902363 5.2630736,3.7796168 5.3211428,3.5471024 c 0,0 -0.043552,-0.1308663 -0.043552,-0.1599279 0,-0.029062 2.71e-5,-0.2251368 -0.029034,-0.2251368 -0.029062,0 -0.1018584,-0.2034799 -0.1018584,-0.2034799 L 5.0741097,2.7841142 4.9941457,2.5880119 4.9070422,2.4935308 4.6961847,2.4283219 H 4.5581514 c 0,0 -0.1161107,-0.00738 -0.1451726,-0.00738 -0.029062,0 -0.3924425,-0.036412 -0.3924425,-0.036412 z" />
    <rect
       style="fill:#ff0000;fill-opacity:1;stroke:none;stroke-width:0.23128;stroke-miterlimit:4;stroke-dasharray:none;stroke-opacity:0.998188"
       id="rect17163"
       width="31.125942"
       height="15.875"
       x="48.207085"
       y="0" />
    <circle
       style="fill:#ffffff;fill-opacity:1;stroke:none;stroke-width:0.267573;stroke-miterlimit:4;stroke-dasharray:none;stroke-opacity:0.998188"
       id="path17365"
       cx="64.029167"
       cy="7.500721"
       r="5.8208332" />
    <path
       id="rect18043"
       style="fill:#000000;fill-opacity:1;stroke:none;stroke-width:0.270653;stroke-miterlimit:4;stroke-dasharray:none;stroke-opacity:0.998188"
       d="M 66.388262,4.2378588 65.452819,5.1733021 64.048558,6.5775635 62.645393,5.1743984 64.982174,2.8376172 64.04673,1.9021736 l -3.272224,3.2722246 0.935443,0.9354435 1.403166,1.4031651 -1.402069,1.4020683 -2.337147,-2.337147 -0.935443,0.9354435 2.337147,2.337147 0.935443,0.9354434 0.935444,-0.9354434 1.402068,-1.4020683 1.403165,1.4031651 -2.337146,2.3371466 0.935443,0.935443 3.272589,-3.2725901 -2.338608,-2.3386079 1.404262,-1.4042613 2.336781,2.3367814 0.935444,-0.9354433 -2.336782,-2.3367814 z" />
    <text
       xml:space="preserve"
       style="font-style:normal;font-weight:normal;font-size:9.08522px;line-height:1.25;font-family:sans-serif;fill:#000000;fill-opacity:1;stroke:none;stroke-width:0.22713"
       x="-0.558954"
       y="27.944592"
       id="text27552"
       transform="scale(1.2935371,0.77307407)"><tspan
         sodipodi:role="line"
         id="tspan27550"
         style="stroke-width:0.22713"
         x="-0.558954"
         y="27.944592">ZSRR</tspan></text>
    <text
       xml:space="preserve"
       transform="scale(0.26458333)"
       id="text31237"
       style="font-style:normal;font-weight:normal;font-size:40px;line-height:1.25;font-family:sans-serif;white-space:pre;shape-inside:url(#rect31239);fill:#000000;fill-opacity:1;stroke:none" />
    <text
       xml:space="preserve"
       style="font-style:normal;font-weight:normal;font-size:6.70746px;line-height:1.25;font-family:sans-serif;fill:#000000;fill-opacity:1;stroke:none;stroke-width:0.167686"
       x="50.793934"
       y="20.309071"
       id="text35403"
       transform="scale(0.94076138,1.0629688)"><tspan
         sodipodi:role="line"
         id="tspan35401"
         style="stroke-width:0.167686"
         x="50.793934"
         y="20.309071">III Rzesza</tspan></text>
  </g>
</svg>
