<?xml version="1.0" encoding="UTF-8" standalone="no"?>
<!-- Created with Inkscape (http://www.inkscape.org/) -->

<svg
   width="300"
   height="300"
   viewBox="0 0 79.374998 79.375002"
   version="1.1"
   id="svg5"
   inkscape:version="1.1 (c68e22c387, 2021-05-23)"
   sodipodi:docname="propaganda.svg"
   inkscape:export-filename="C:\Users\filip\Desktop\Projekt 1\grafika\propaganda.png"
   inkscape:export-xdpi="120.945"
   inkscape:export-ydpi="120.945"
   xmlns:inkscape="http://www.inkscape.org/namespaces/inkscape"
   xmlns:sodipodi="http://sodipodi.sourceforge.net/DTD/sodipodi-0.dtd"
   xmlns="http://www.w3.org/2000/svg"
   xmlns:svg="http://www.w3.org/2000/svg">
  <sodipodi:namedview
     id="namedview7"
     pagecolor="#505050"
     bordercolor="#ffffff"
     borderopacity="1"
     inkscape:pageshadow="0"
     inkscape:pageopacity="0"
     inkscape:pagecheckerboard="1"
     inkscape:document-units="mm"
     showgrid="false"
     units="px"
     inkscape:zoom="1.4823793"
     inkscape:cx="148.41005"
     inkscape:cy="156.84244"
     inkscape:window-width="1920"
     inkscape:window-height="1017"
     inkscape:window-x="1912"
     inkscape:window-y="760"
     inkscape:window-maximized="1"
     inkscape:current-layer="layer1" />
  <defs
     id="defs2" />
  <g
     inkscape:label="Warstwa 1"
     inkscape:groupmode="layer"
     id="layer1">
    <path
       style="color:#000000;fill:#ff8080;stroke-width:0.847608;-inkscape-stroke:none"
       d="M 212.42969,0 151.24805,196.08203 96.4375,0 h -60 l 81.85938,300 h 34.81097 29.96246 L 271.86328,3.7795276e-7 Z"
       id="rect1666"
       sodipodi:nodetypes="ccccccccc"
       transform="scale(0.26458333)" />
    <path
       style="fill:#000055;stroke:#ffffff;stroke-width:0.0529167;stroke-miterlimit:4;stroke-dasharray:none;stroke-opacity:1"
       d="M 9.6407551,0 12.543547,10.536005 28.402771,10.551783 25.515755,0 Z"
       id="rect5125"
       sodipodi:nodetypes="ccccc" />
    <path
       style="fill:#000055;stroke:#ffffff;stroke-width:0.0529167;stroke-miterlimit:4;stroke-dasharray:none;stroke-opacity:1"
       d="m 12.527772,10.551781 2.902792,10.536005 15.859223,0.01578 -2.887016,-10.551783 z"
       id="rect5125-1"
       sodipodi:nodetypes="ccccc" />
    <path
       style="fill:#000055;stroke:#ffffff;stroke-width:0.0529167;stroke-miterlimit:4;stroke-dasharray:none;stroke-opacity:1"
       d="M 72.080354,-2e-6 68.820591,10.402139 52.961368,10.417919 56.205355,0 Z"
       id="rect5125-1-06"
       sodipodi:nodetypes="ccccc" />
    <path
       style="fill:#aa0000;stroke:#ffffff;stroke-width:0.0529167;stroke-miterlimit:4;stroke-dasharray:none;stroke-opacity:1"
       d="M 65.576604,20.820058 62.673812,31.400685 46.457618,31.237979 49.701605,20.82006 Z"
       id="rect5125-1-06-0"
       sodipodi:nodetypes="ccccc" />
    <path
       style="fill:#d40000;stroke:#ffffff;stroke-width:0.0529167;stroke-miterlimit:4;stroke-dasharray:none;stroke-opacity:1"
       d="m 62.673812,31.400685 -3.065501,10.46254 -16.39468,-0.207327 3.243987,-10.417919 z m -14.393463,4.653402"
       id="rect5125-1-06-0-3"
       sodipodi:nodetypes="ccccc" />
    <path
       style="fill:#d40000;stroke:#ffffff;stroke-width:0.079375;stroke-miterlimit:4;stroke-dasharray:none;stroke-opacity:1"
       d="m 59.429825,41.818604 -3.065501,10.46254 -16.39468,-0.207327 3.243987,-10.417919 z m -14.393463,4.653402"
       id="rect5125-1-06-0-3-1"
       sodipodi:nodetypes="ccccc" />
    <path
       style="fill:#000000;stroke:none;stroke-width:0.0529167;stroke-miterlimit:4;stroke-dasharray:none;stroke-opacity:1"
       d="m 48.291937,41.692396 -3.065501,10.46254 -5.256792,-0.08112 3.243987,-10.417919 z"
       id="rect5125-1-06-0-3-1-4"
       sodipodi:nodetypes="ccccc"
       inkscape:transform-center-x="-21.061594"
       inkscape:transform-center-y="-1.6063981" />
    <path
       style="fill:#ffff00;stroke:none;stroke-width:0.0529167;stroke-miterlimit:4;stroke-dasharray:none;stroke-opacity:1"
       d="M 53.843524,41.791999 50.778023,52.254539 45.04795,52.110315 48.291937,41.692396 Z"
       id="rect5125-1-06-0-3-1-4-2"
       sodipodi:nodetypes="ccccc"
       inkscape:transform-center-x="-21.061594"
       inkscape:transform-center-y="-1.6063981" />
    <path
       style="fill:#000080;stroke-width:0.166023;stroke-opacity:0.998188"
       d="m 60.531985,38.487243 -0.923674,3.375982 -16.39468,-0.08311 1.10216,-3.358095 z"
       id="rect5125-1-06-0-3-3"
       sodipodi:nodetypes="ccccc" />
    <path
       style="fill:#ffffff;stroke-width:0.183119;stroke-opacity:0.998188"
       d="m 61.589522,34.813036 -1.057537,3.674207 -16.39468,-0.101104 1.236024,-3.652447 z"
       id="rect5125-1-06-0-3-3-0"
       sodipodi:nodetypes="ccccc" />
    <path
       style="fill:#000055;stroke-width:0.262227;stroke-opacity:0.998188"
       d="m 68.836367,10.417917 -3.259763,10.402141 -15.859223,0.01578 3.243987,-10.417919 z"
       id="rect5125-1-06-3"
       sodipodi:nodetypes="ccccc" />
    <path
       id="rect6108"
       style="fill:#ffffff;stroke-width:0.460581;stroke-opacity:0.998188"
       d="m 16.432484,0 2.050886,10.520229 h 2.645833 L 19.078317,0 Z"
       sodipodi:nodetypes="ccccc" />
    <path
       id="rect6108-4"
       style="fill:#ffffff;stroke-width:2.13201;stroke-opacity:0.998188"
       d="m 40.432442,14.70187 2.9813,10.536634 h 60.119248 l -3.04092,-10.357756 z"
       sodipodi:nodetypes="ccccc"
       transform="scale(0.26458333)" />
    <path
       style="fill:#ffffff;stroke-width:0.264583;stroke-opacity:0.998188"
       d="m 9.9878281,1.2318699 17.3566099,9.3199121 1.058333,-10e-7 L 28.08725,9.3672398 10.699088,0 H 9.6407551 Z"
       id="rect6386"
       sodipodi:nodetypes="ccccccc" />
    <path
       style="fill:#ffffff;stroke-width:0.177134;stroke-opacity:0.998188"
       d="M 24.457422,0 12.259579,9.6196566 12.543547,10.536005 H 13.60188 L 25.799724,1.1214375 25.515755,0 Z"
       id="rect9058"
       sodipodi:nodetypes="ccccccc" />
    <path
       style="fill:#aa0000;stroke-width:0.0885672;stroke-opacity:0.998188"
       d="m 24.986589,-1e-7 -12.585026,10.1014941 0.141984,0.434511 h 0.529167 L 25.689291,0.56071869 25.515755,0 Z"
       id="rect9058-2"
       sodipodi:nodetypes="ccccccc" />
    <path
       style="fill:#aa0000;stroke-width:0.132291;stroke-opacity:0.998188"
       d="M 9.7827395,0.56071879 27.873605,10.551782 28.402771,10.551781 28.292339,9.9910628 10.169922,0 H 9.6407551 Z"
       id="rect6386-9"
       sodipodi:nodetypes="ccccccc" />
    <path
       id="rect6108-2"
       style="fill:#aa0000;stroke-width:0.325681;stroke-opacity:0.998188"
       d="m 17.093942,0 2.050886,10.520229 h 1.322917 L 18.416859,0 Z"
       sodipodi:nodetypes="ccccc" />
    <path
       id="rect6108-4-1"
       style="fill:#aa0000;stroke-width:1.50756;stroke-opacity:0.998188"
       d="m 41.267206,17.440374 1.609902,5.29813 59.821122,-0.417382 -1.3714,-4.880748 z"
       sodipodi:nodetypes="ccccc"
       transform="scale(0.26458333)" />
    <path
       style="fill:#000055;fill-opacity:1;stroke:#ffffff;stroke-width:0.0529167;stroke-miterlimit:4;stroke-dasharray:none;stroke-opacity:1"
       d="m 23.965403,52.166639 2.902792,10.536005 15.859224,0.01578 -2.887016,-10.551783 z"
       id="rect5125-3"
       sodipodi:nodetypes="ccccc" />
    <path
       id="rect6108-0"
       style="fill:#ffffff;stroke-width:0.460581;stroke-opacity:0.998188"
       d="m 30.757132,52.166639 2.050886,10.520229 h 2.645833 L 33.402965,52.166639 Z"
       sodipodi:nodetypes="ccccc" />
    <path
       id="rect6108-4-4"
       style="fill:#ffffff;stroke-width:0.564094;stroke-opacity:0.998188"
       d="m 25.022398,56.056508 0.788802,2.787818 h 15.906551 l -0.804577,-2.74049 z"
       sodipodi:nodetypes="ccccc" />
    <path
       style="fill:#ffffff;stroke-width:0.264583;stroke-opacity:0.998188"
       d="m 24.312476,53.398508 17.35661,9.319913 1.058333,-10e-7 -0.315521,-1.184542 -17.388162,-9.367239 h -1.058333 z"
       id="rect6386-0"
       sodipodi:nodetypes="ccccccc" />
    <path
       style="fill:#ffffff;stroke-width:0.177134;stroke-opacity:0.998188"
       d="m 38.78207,52.166639 -12.197843,9.619656 0.283968,0.916349 h 1.058333 l 12.197844,-9.414568 -0.283969,-1.121437 z"
       id="rect9058-8"
       sodipodi:nodetypes="ccccccc" />
    <path
       style="fill:#aa0000;stroke-width:0.0885672;stroke-opacity:0.998188"
       d="m 39.311237,52.166638 -12.585026,10.101495 0.141984,0.434511 h 0.529167 l 12.616577,-9.975287 -0.173536,-0.560718 z"
       id="rect9058-2-8"
       sodipodi:nodetypes="ccccccc" />
    <path
       style="fill:#aa0000;stroke-width:0.132291;stroke-opacity:0.998188"
       d="m 24.107388,52.727357 18.090865,9.991064 0.529166,-10e-7 -0.110432,-0.560719 -18.122417,-9.991062 h -0.529167 z"
       id="rect6386-9-7"
       sodipodi:nodetypes="ccccccc" />
    <path
       id="rect6108-2-6"
       style="fill:#aa0000;stroke-width:0.325681;stroke-opacity:0.998188"
       d="m 31.41859,52.166639 2.050886,10.520229 h 1.322917 L 32.741507,52.166639 Z"
       sodipodi:nodetypes="ccccc" />
    <path
       id="rect6108-4-1-9"
       style="fill:#aa0000;stroke-width:0.398875;stroke-opacity:0.998188"
       d="m 25.243263,56.781071 0.425953,1.401797 15.827671,-0.110433 -0.362849,-1.291364 z"
       sodipodi:nodetypes="ccccc" />
    <path
       style="fill:#000055;stroke-width:0.112716;stroke-opacity:0.998188"
       d="m 12.527772,10.551781 1.301142,4.342906 7.10871,0.0065 -1.294071,-4.349409 z"
       id="rect5125-2"
       sodipodi:nodetypes="ccccc" />
    <path
       id="rect6108-5"
       style="fill:#ffffff;stroke-width:0.197976;stroke-opacity:0.998188"
       d="m 15.572084,10.551781 0.919286,4.336403 h 1.185963 l -0.919286,-4.336403 z"
       sodipodi:nodetypes="ccccc" />
    <path
       id="rect6108-4-3"
       style="fill:#ffffff;stroke-width:0.24247;stroke-opacity:0.998188"
       d="m 13.001557,12.155172 0.353572,1.149129 h 7.129923 l -0.360642,-1.12962 z"
       sodipodi:nodetypes="ccccc" />
    <path
       style="fill:#ffffff;stroke-width:0.113728;stroke-opacity:0.998188"
       d="m 12.683343,11.059554 7.779895,3.841636 0.474386,-10e-7 -0.141429,-0.488263 -7.794038,-3.861145 h -0.474385 z"
       id="rect6386-7"
       sodipodi:nodetypes="ccccccc" />
    <path
       style="fill:#ffffff;stroke-width:0.0761392;stroke-opacity:0.998188"
       d="m 19.169168,10.551781 -5.467539,3.96519 0.127285,0.377716 h 0.474385 l 5.46754,-3.880653 -0.127286,-0.462253 z"
       id="rect9058-1"
       sodipodi:nodetypes="ccccccc" />
    <path
       style="fill:#aa0000;stroke-width:0.0380697;stroke-opacity:0.998188"
       d="m 19.406361,10.551781 -5.64109,4.163802 0.06364,0.179104 h 0.237193 l 5.655231,-4.11178 -0.07778,-0.231126 z"
       id="rect9058-2-7"
       sodipodi:nodetypes="ccccccc" />
    <path
       style="fill:#aa0000;stroke-width:0.0568639;stroke-opacity:0.998188"
       d="m 12.591415,10.782907 8.109016,4.118283 0.237193,-10e-7 -0.0495,-0.231126 -8.12316,-4.118282 h -0.237192 z"
       id="rect6386-9-3"
       sodipodi:nodetypes="ccccccc" />
    <path
       id="rect6108-2-8"
       style="fill:#aa0000;stroke-width:0.139991;stroke-opacity:0.998188"
       d="m 15.868575,10.551781 0.919285,4.336403 h 0.592982 l -0.919285,-4.336403 z"
       sodipodi:nodetypes="ccccc" />
    <path
       id="rect6108-4-1-2"
       style="fill:#aa0000;stroke-width:0.171452;stroke-opacity:0.998188"
       d="m 13.100557,12.453834 0.190929,0.577816 7.094567,-0.04552 -0.162643,-0.532297 z"
       sodipodi:nodetypes="ccccc" />
    <path
       id="rect16029"
       style="fill:#aa0000;stroke-width:0.205399;stroke-opacity:0.998188"
       d="m 22.727036,11.840223 0.288095,1.075183 2.466329,-0.660852 -0.288091,-1.075182 z" />
    <path
       id="rect16031"
       style="fill:#000080;stroke-width:0.205399;stroke-opacity:0.998188"
       d="m 23.015131,12.915406 0.288094,1.075181 2.504764,-0.671149 -0.288089,-1.075183 z" />
    <path
       id="rect16033"
       style="fill:#008080;stroke-width:0.2054;stroke-opacity:0.998188"
       d="m 23.30321,13.990535 c 0,0 0.223473,0.770271 0.642176,0.855445 0.561968,0.114315 1.255193,-0.0076 1.733461,-0.620197 0.304298,-0.389789 0.167346,-0.916638 0.167346,-0.916638 z"
       sodipodi:nodetypes="cascc" />
    <path
       style="fill:#000055;stroke:#ffffff;stroke-width:0.0529167;stroke-miterlimit:4;stroke-dasharray:none;stroke-opacity:1"
       d="m 15.414788,21.103564 2.902792,10.536005 15.859223,0.01578 -2.887016,-10.551783 z"
       id="rect5125-1-0"
       sodipodi:nodetypes="ccccc" />
    <path
       style="fill:#000055;stroke-width:0.112716;stroke-opacity:0.998188"
       d="m 15.414788,21.103564 1.301142,4.342906 7.10871,0.0065 -1.294071,-4.349409 z"
       id="rect5125-2-9"
       sodipodi:nodetypes="ccccc" />
    <path
       id="rect6108-5-5"
       style="fill:#ffffff;stroke-width:0.197976;stroke-opacity:0.998188"
       d="m 18.4591,21.103564 0.919286,4.336403 h 1.185963 l -0.919286,-4.336403 z"
       sodipodi:nodetypes="ccccc" />
    <path
       id="rect6108-4-3-2"
       style="fill:#ffffff;stroke-width:0.24247;stroke-opacity:0.998188"
       d="m 15.888573,22.706955 0.353572,1.149129 h 7.129923 l -0.360642,-1.12962 z"
       sodipodi:nodetypes="ccccc" />
    <path
       style="fill:#ffffff;stroke-width:0.113728;stroke-opacity:0.998188"
       d="m 15.570359,21.611337 7.779895,3.841636 0.474386,-1e-6 -0.141429,-0.488263 -7.794038,-3.861145 h -0.474385 z"
       id="rect6386-7-2"
       sodipodi:nodetypes="ccccccc" />
    <path
       style="fill:#ffffff;stroke-width:0.0761392;stroke-opacity:0.998188"
       d="m 22.056184,21.103564 -5.467539,3.96519 0.127285,0.377716 h 0.474385 l 5.46754,-3.880653 -0.127286,-0.462253 z"
       id="rect9058-1-8"
       sodipodi:nodetypes="ccccccc" />
    <path
       style="fill:#aa0000;stroke-width:0.0380697;stroke-opacity:0.998188"
       d="m 22.293377,21.103564 -5.64109,4.163802 0.06364,0.179104 h 0.237193 l 5.655231,-4.11178 -0.07778,-0.231126 z"
       id="rect9058-2-7-2"
       sodipodi:nodetypes="ccccccc" />
    <path
       style="fill:#aa0000;stroke-width:0.0568639;stroke-opacity:0.998188"
       d="m 15.478431,21.33469 8.109016,4.118283 0.237193,-1e-6 -0.0495,-0.231126 -8.12316,-4.118282 h -0.237192 z"
       id="rect6386-9-3-3"
       sodipodi:nodetypes="ccccccc" />
    <path
       id="rect6108-2-8-2"
       style="fill:#aa0000;stroke-width:0.139991;stroke-opacity:0.998188"
       d="m 18.755591,21.103564 0.919285,4.336403 h 0.592982 l -0.919285,-4.336403 z"
       sodipodi:nodetypes="ccccc" />
    <path
       id="rect6108-4-1-2-5"
       style="fill:#aa0000;stroke-width:0.171452;stroke-opacity:0.998188"
       d="m 15.987573,23.005617 0.190929,0.577816 7.094567,-0.04552 -0.162643,-0.532297 z"
       sodipodi:nodetypes="ccccc" />
    <path
       sodipodi:type="star"
       style="fill:#ffffff;stroke-opacity:0.998188"
       id="path17433"
       inkscape:flatsided="false"
       sodipodi:sides="7"
       sodipodi:cx="-11.805345"
       sodipodi:cy="84.155247"
       sodipodi:r1="4.7938709"
       sodipodi:r2="2.3969355"
       sodipodi:arg1="0.88506682"
       sodipodi:arg2="1.3338658"
       inkscape:rounded="0"
       inkscape:randomized="0"
       d="m -8.769685,87.865498 -2.473052,-1.380279 -1.570696,2.356707 -0.462777,-2.7941 -2.821861,0.241362 1.895978,-2.103906 -1.948105,-2.055732 2.827023,0.170571 0.392612,-2.804819 1.629262,2.316606 2.4376854,-1.44182 -0.7953668,2.718188 2.6471317,1.0069 -2.621068,1.07292 z"
       transform="matrix(0.26458333,0,0,0.26458333,23.858747,6.2552058)"
       inkscape:transform-center-x="-0.059351563"
       inkscape:transform-center-y="0.0035364096" />
    <path
       sodipodi:type="star"
       style="fill:#ffffff;stroke-opacity:0.998188"
       id="path17537"
       inkscape:flatsided="false"
       sodipodi:sides="7"
       sodipodi:cx="18.551256"
       sodipodi:cy="67.290466"
       sodipodi:r1="2.8620479"
       sodipodi:r2="1.431024"
       sodipodi:arg1="0.78539816"
       sodipodi:arg2="1.2341971"
       inkscape:rounded="0"
       inkscape:randomized="0"
       d="m 20.57503,69.31424 -1.551137,-0.673054 -0.793085,1.493332 -0.440902,-1.632369 -1.662015,0.311019 1.001339,-1.362478 -1.279413,-1.105498 1.689552,-0.06661 0.06661,-1.689553 1.105498,1.279413 1.362477,-1.001339 -0.311018,1.662015 1.632369,0.440903 -1.493332,0.793085 z"
       transform="matrix(0.26458333,0,0,0.26458333,22.430862,4.916564)"
       inkscape:transform-center-x="-0.018866226"
       inkscape:transform-center-y="0.018865792" />
    <path
       sodipodi:type="star"
       style="fill:#ffffff;stroke-opacity:0.998188"
       id="path17539"
       inkscape:flatsided="false"
       sodipodi:sides="7"
       sodipodi:cx="12.142641"
       sodipodi:cy="74.710968"
       sodipodi:r1="2.8068585"
       sodipodi:r2="1.4034293"
       sodipodi:arg1="0.57133748"
       sodipodi:arg2="1.0201364"
       inkscape:rounded="0"
       inkscape:randomized="0"
       d="m 14.50371,76.228798 -1.626725,-0.321856 -0.448929,1.596336 -0.762609,-1.472499 -1.527968,0.644312 0.675767,-1.51432 -1.4564164,-0.792891 1.6052774,-0.415827 -0.288154,-1.633032 1.32598,0.995792 1.097096,-1.243466 0.04819,1.657559 1.656209,0.08246 -1.265884,1.07115 z"
       transform="matrix(0.26458333,0,0,0.26458333,22.430862,4.916564)"
       inkscape:transform-center-x="0.01680389"
       inkscape:transform-center-y="0.020198461" />
    <path
       sodipodi:type="star"
       style="fill:#ffffff;stroke-opacity:0.998188"
       id="path17541"
       inkscape:flatsided="false"
       sodipodi:sides="7"
       sodipodi:cx="24.622577"
       sodipodi:cy="74.542323"
       sodipodi:r1="2.9836841"
       sodipodi:r2="1.491842"
       sodipodi:arg1="0.74541948"
       sodipodi:arg2="1.1942184"
       inkscape:rounded="0"
       inkscape:randomized="0"
       d="m 26.814999,76.566096 -1.643811,-0.636467 -0.763908,1.5886 -0.52729,-1.682014 -1.718306,0.393229 0.986292,-1.46097 -1.378785,-1.098252 1.757176,-0.139786 -0.001,-1.762726 1.20487,1.28666 1.377525,-1.099832 -0.254727,1.744225 1.718755,0.391258 -1.522509,0.888352 z"
       transform="matrix(0.26458333,0,0,0.26458333,22.430862,4.916564)"
       inkscape:transform-center-x="-0.01267563"
       inkscape:transform-center-y="0.026629172" />
    <path
       sodipodi:type="star"
       style="fill:#ffffff;stroke-opacity:0.998188"
       id="path17543"
       inkscape:flatsided="false"
       sodipodi:sides="7"
       sodipodi:cx="15.684244"
       sodipodi:cy="79.939052"
       sodipodi:r1="2.5071297"
       sodipodi:r2="1.2535648"
       sodipodi:arg1="0.83298127"
       sodipodi:arg2="1.2817802"
       inkscape:rounded="0"
       inkscape:randomized="0"
       d="m 17.370722,81.794178 -1.3292,-0.653553 -0.756171,1.273621 -0.317775,-1.446694 -1.467222,0.20289 0.932942,-1.150445 -1.073425,-1.02062 1.481134,0.01211 0.128684,-1.475583 0.914002,1.165549 1.233891,-0.819401 -0.341392,1.441303 1.409952,0.453806 -1.339711,0.631727 z"
       transform="matrix(0.26458333,0,0,0.26458333,23.546397,5.7643705)"
       inkscape:transform-center-x="-0.023484958"
       inkscape:transform-center-y="0.0095310354" />
    <path
       style="fill:#000055;stroke:#ffffff;stroke-width:0.0529167;stroke-miterlimit:4;stroke-dasharray:none;stroke-opacity:1"
       d="m 18.301804,31.655347 2.902792,10.536005 15.859223,0.01578 -2.887016,-10.551783 z"
       id="rect5125-1-0-2"
       sodipodi:nodetypes="ccccc" />
    <path
       style="fill:#000055;stroke:#ffffff;stroke-width:0.0529167;stroke-miterlimit:4;stroke-dasharray:none;stroke-opacity:1"
       d="m 21.204596,42.191352 2.902792,10.536005 16.126951,0.238887 -3.154744,-10.77489 z"
       id="rect5125-1-0-2-8"
       sodipodi:nodetypes="ccccc" />
    <path
       style="fill:#aa4400;stroke-width:0.176199;stroke-opacity:0.998188"
       d="m 21.204596,42.191352 0.862669,3.053368 15.978451,0.01841 -0.966121,-3.071777 c 0.21399,3.5e-5 -10.583333,-2e-6 -15.874999,-10e-7 z"
       id="rect5125-1-0-2-8-1"
       sodipodi:nodetypes="ccccc" />
    <path
       style="fill:#ffffff;stroke-width:0.202552;stroke-opacity:0.998188"
       d="m 22.067265,45.24472 0.996533,3.588825 15.889208,0.0546 -0.876878,-3.59881 z"
       id="rect5125-1-0-2-8-1-1"
       sodipodi:nodetypes="ccccc" />
    <path
       style="fill:#000055;stroke-width:0.112716;stroke-opacity:0.998188"
       d="m 18.301804,31.655347 1.301142,4.342906 7.10871,0.0065 -1.294071,-4.349409 z"
       id="rect5125-2-9-2"
       sodipodi:nodetypes="ccccc" />
    <path
       id="rect6108-5-5-5"
       style="fill:#ffffff;stroke-width:0.197976;stroke-opacity:0.998188"
       d="m 21.346116,31.655347 0.919286,4.336403 h 1.185963 l -0.919286,-4.336403 z"
       sodipodi:nodetypes="ccccc" />
    <path
       id="rect6108-4-3-2-3"
       style="fill:#ffffff;stroke-width:0.24247;stroke-opacity:0.998188"
       d="m 18.775589,33.258738 0.353572,1.149129 h 7.129923 l -0.360642,-1.12962 z"
       sodipodi:nodetypes="ccccc" />
    <path
       style="fill:#ffffff;stroke-width:0.113728;stroke-opacity:0.998188"
       d="m 18.457375,32.16312 7.779895,3.841636 0.474386,-10e-7 -0.141429,-0.488263 -7.794038,-3.861145 h -0.474385 z"
       id="rect6386-7-2-0"
       sodipodi:nodetypes="ccccccc" />
    <path
       style="fill:#ffffff;stroke-width:0.0761392;stroke-opacity:0.998188"
       d="m 24.9432,31.655347 -5.467539,3.96519 0.127285,0.377716 h 0.474385 l 5.46754,-3.880653 -0.127286,-0.462253 z"
       id="rect9058-1-8-9"
       sodipodi:nodetypes="ccccccc" />
    <path
       style="fill:#aa0000;stroke-width:0.0380697;stroke-opacity:0.998188"
       d="m 25.180393,31.655347 -5.64109,4.163802 0.06364,0.179104 h 0.237193 l 5.655231,-4.11178 -0.07778,-0.231126 z"
       id="rect9058-2-7-2-8"
       sodipodi:nodetypes="ccccccc" />
    <path
       style="fill:#aa0000;stroke-width:0.0568639;stroke-opacity:0.998188"
       d="m 18.365447,31.886473 8.109016,4.118283 0.237193,-10e-7 -0.0495,-0.231126 -8.12316,-4.118282 h -0.237192 z"
       id="rect6386-9-3-3-9"
       sodipodi:nodetypes="ccccccc" />
    <path
       id="rect6108-2-8-2-7"
       style="fill:#aa0000;stroke-width:0.139991;stroke-opacity:0.998188"
       d="m 21.642607,31.655347 0.919285,4.336403 h 0.592982 l -0.919285,-4.336403 z"
       sodipodi:nodetypes="ccccc" />
    <path
       id="rect6108-4-1-2-5-4"
       style="fill:#aa0000;stroke-width:0.171452;stroke-opacity:0.998188"
       d="m 18.874589,33.5574 0.190929,0.577816 7.094567,-0.04552 -0.162643,-0.532297 z"
       sodipodi:nodetypes="ccccc" />
    <path
       sodipodi:type="star"
       style="fill:none;stroke:#ffffff;stroke-width:0.5;stroke-miterlimit:4;stroke-dasharray:none;stroke-opacity:1"
       id="path17537-4"
       inkscape:flatsided="false"
       sodipodi:sides="7"
       sodipodi:cx="18.551256"
       sodipodi:cy="67.290466"
       sodipodi:r1="2.8620479"
       sodipodi:r2="1.431024"
       sodipodi:arg1="0.78539816"
       sodipodi:arg2="1.2341971"
       inkscape:rounded="0"
       inkscape:randomized="0"
       transform="matrix(0.26458333,0,0,0.26458333,25.317878,15.468347)"
       inkscape:transform-center-x="-0.018866226"
       inkscape:transform-center-y="0.018865792"
       d="m 20.57503,69.31424 -1.551137,-0.673054 -0.793085,1.493332 -0.440902,-1.632369 -1.662015,0.311019 1.001339,-1.362478 -1.279413,-1.105498 1.689552,-0.06661 0.06661,-1.689553 1.105498,1.279413 1.362477,-1.001339 -0.311018,1.662015 1.632369,0.440903 -1.493332,0.793085 z" />
    <path
       sodipodi:type="star"
       style="fill:none;stroke:#ffffff;stroke-width:0.5;stroke-miterlimit:4;stroke-dasharray:none;stroke-opacity:1"
       id="path17539-3"
       inkscape:flatsided="false"
       sodipodi:sides="7"
       sodipodi:cx="12.142641"
       sodipodi:cy="74.710968"
       sodipodi:r1="2.8068585"
       sodipodi:r2="1.4034293"
       sodipodi:arg1="0.57133748"
       sodipodi:arg2="1.0201364"
       inkscape:rounded="0"
       inkscape:randomized="0"
       transform="matrix(0.26458333,0,0,0.26458333,25.317878,15.468347)"
       inkscape:transform-center-x="0.01680389"
       inkscape:transform-center-y="0.020198461"
       d="m 14.50371,76.228798 -1.626725,-0.321856 -0.448929,1.596336 -0.762609,-1.472499 -1.527968,0.644312 0.675767,-1.51432 -1.4564164,-0.792891 1.6052774,-0.415827 -0.288154,-1.633032 1.32598,0.995792 1.097096,-1.243466 0.04819,1.657559 1.656209,0.08246 -1.265884,1.07115 z" />
    <path
       sodipodi:type="star"
       style="fill:none;stroke:#ffffff;stroke-width:0.5;stroke-miterlimit:4;stroke-dasharray:none;stroke-opacity:1"
       id="path17539-3-2"
       inkscape:flatsided="false"
       sodipodi:sides="7"
       sodipodi:cx="12.142641"
       sodipodi:cy="74.710968"
       sodipodi:r1="2.8068585"
       sodipodi:r2="1.4034293"
       sodipodi:arg1="0.57133748"
       sodipodi:arg2="1.0201364"
       inkscape:rounded="0"
       inkscape:randomized="0"
       transform="matrix(0.26458333,0,0,0.26458333,29.443925,15.309385)"
       inkscape:transform-center-x="0.01680389"
       inkscape:transform-center-y="0.020198461"
       d="m 14.50371,76.228798 -1.626725,-0.321856 -0.448929,1.596336 -0.762609,-1.472499 -1.527968,0.644312 0.675767,-1.51432 -1.4564164,-0.792891 1.6052774,-0.415827 -0.288154,-1.633032 1.32598,0.995792 1.097096,-1.243466 0.04819,1.657559 1.656209,0.08246 -1.265884,1.07115 z" />
    <path
       sodipodi:type="star"
       style="fill:none;stroke:#ffffff;stroke-width:0.5;stroke-miterlimit:4;stroke-dasharray:none;stroke-opacity:1"
       id="path17539-3-9"
       inkscape:flatsided="false"
       sodipodi:sides="7"
       sodipodi:cx="12.142641"
       sodipodi:cy="74.710968"
       sodipodi:r1="2.8068585"
       sodipodi:r2="1.4034293"
       sodipodi:arg1="0.57133748"
       sodipodi:arg2="1.0201364"
       inkscape:rounded="0"
       inkscape:randomized="0"
       transform="matrix(0.26458333,0,0,0.26458333,27.391341,17.585076)"
       inkscape:transform-center-x="0.01680389"
       inkscape:transform-center-y="0.020198461"
       d="m 14.50371,76.228798 -1.626725,-0.321856 -0.448929,1.596336 -0.762609,-1.472499 -1.527968,0.644312 0.675767,-1.51432 -1.4564164,-0.792891 1.6052774,-0.415827 -0.288154,-1.633032 1.32598,0.995792 1.097096,-1.243466 0.04819,1.657559 1.656209,0.08246 -1.265884,1.07115 z" />
    <rect
       style="fill:#d45500;stroke:#ffffff;stroke-width:0.132292;stroke-miterlimit:4;stroke-dasharray:none;stroke-opacity:1"
       id="rect19928"
       width="1.7402344"
       height="1.2493989"
       x="29.057961"
       y="46.475006" />
    <rect
       style="fill:#0000ff;stroke:#ffffff;stroke-width:0.0730051;stroke-miterlimit:4;stroke-dasharray:none;stroke-opacity:1"
       id="rect20054"
       width="1.2499115"
       height="0.5501222"
       x="27.80805"
       y="46.77869" />
    <rect
       style="fill:#0000ff;stroke:#ffffff;stroke-width:0.0730051;stroke-miterlimit:4;stroke-dasharray:none;stroke-opacity:1"
       id="rect20054-7"
       width="1.2499115"
       height="0.5501222"
       x="30.798195"
       y="46.858063" />
    <ellipse
       style="fill:#ffff00;stroke:#ffffff;stroke-width:0.132292;stroke-miterlimit:4;stroke-dasharray:none;stroke-opacity:1"
       id="path20767"
       cx="33.034061"
       cy="57.46484"
       rx="3.0342548"
       ry="2.5657301" />
    <ellipse
       style="fill:#2c89a0;stroke:none;stroke-width:0.132292;stroke-miterlimit:4;stroke-dasharray:none;stroke-opacity:1"
       id="path20769"
       cx="33.078682"
       cy="57.487152"
       rx="1.4278847"
       ry="1.3386418" />
    <ellipse
       style="fill:#d4aa00;stroke:none;stroke-width:0.132292;stroke-miterlimit:4;stroke-dasharray:none;stroke-opacity:1"
       id="path21005"
       cx="33.078682"
       cy="57.621017"
       rx="0.89242786"
       ry="0.84780651" />
    <path
       id="rect21498"
       style="fill:#ffffff;stroke:none;stroke-width:0.500001;stroke-miterlimit:4;stroke-dasharray:none;stroke-opacity:1"
       d="m 212.42969,0 c 5.39673,7.1954267 20.75476,23.96205 19.22586,21.923575 L 265.62001,21.58628 272.19727,0 Z"
       sodipodi:nodetypes="ccccc"
       transform="scale(0.26458333)" />
    <path
       id="rect21498-4"
       style="fill:#d40000;stroke:none;stroke-width:0.132292;stroke-miterlimit:4;stroke-dasharray:none;stroke-opacity:1"
       d="m 52.961368,10.417919 8.330828,-4.6173065 8.986431,-0.089243 -1.458036,4.6907695 z"
       sodipodi:nodetypes="ccccc" />
    <path
       id="rect22845"
       style="fill:#ffffff;stroke:#ffffff;stroke-width:0.2;stroke-miterlimit:4;stroke-dasharray:none;stroke-opacity:1"
       d="m 200.16797,39.375 -6.57726,21.000679 60.22374,-0.168648 6.29487,-20.891859 z"
       sodipodi:nodetypes="ccccc"
       transform="scale(0.26458333)" />
    <path
       id="rect22845-7"
       style="fill:#d40000;stroke:#ffffff;stroke-width:0.0529167;stroke-miterlimit:4;stroke-dasharray:none;stroke-opacity:1"
       d="m 51.469217,15.352664 -1.751836,5.483174 15.859223,-0.01578 1.752095,-5.481055 z"
       sodipodi:nodetypes="ccccc" />
    <path
       id="rect24231"
       style="fill:#ffffff;stroke:none;stroke-width:0.500001;stroke-miterlimit:4;stroke-dasharray:none;stroke-opacity:1"
       d="M 198.16211,78.927734 187.5373,118.05401 h 8.09375 l 10.62481,-39.126276 z"
       sodipodi:nodetypes="ccccc"
       transform="scale(0.26458333)" />
    <path
       id="rect24231-8"
       style="fill:#ffffff;stroke:none;stroke-width:0.16077;stroke-miterlimit:4;stroke-dasharray:none;stroke-opacity:1"
       d="m 63.640589,26.692433 -15.838142,-0.0033 0.881327,-2.067011 15.838141,0.0033 z"
       sodipodi:nodetypes="ccccc" />
    <path
       id="rect24231-8-7"
       style="fill:#000080;stroke:none;stroke-width:0.128516;stroke-miterlimit:4;stroke-dasharray:none;stroke-opacity:1"
       d="m 63.640589,26.210964 -15.838142,-0.0021 0.881327,-1.320833 15.838141,0.0021 z"
       sodipodi:nodetypes="ccccc" />
    <path
       id="rect24231-3"
       style="fill:#000080;stroke:none;stroke-width:0.116186;stroke-miterlimit:4;stroke-dasharray:none;stroke-opacity:1"
       d="m 52.611159,20.814474 -2.810243,10.541229 1.61093,0.0421 2.810243,-10.541228 z"
       sodipodi:nodetypes="ccccc" />
    <path
       style="fill:#d40000;stroke:#ffffff;stroke-width:0.079375;stroke-miterlimit:4;stroke-dasharray:none;stroke-opacity:1"
       d="m 56.185838,52.236523 -3.065501,10.46254 -16.39468,-0.207327 3.243987,-10.417919 z m -14.393463,4.653402"
       id="rect5125-1-06-0-3-1-2"
       sodipodi:nodetypes="ccccc" />
    <path
       style="fill:#000080;stroke:none;stroke-width:0.0529167;stroke-miterlimit:4;stroke-dasharray:none;stroke-opacity:1"
       d="m 45.04795,52.110315 -3.065501,10.46254 -5.256792,-0.08112 3.243987,-10.417919 z"
       id="rect5125-1-06-0-3-1-4-3"
       sodipodi:nodetypes="ccccc"
       inkscape:transform-center-x="-21.061594"
       inkscape:transform-center-y="-1.6063981" />
    <path
       style="fill:#ffffff;stroke:none;stroke-width:0.0529167;stroke-miterlimit:4;stroke-dasharray:none;stroke-opacity:1"
       d="M 50.599537,52.209918 47.534036,62.672458 41.803963,62.528234 45.04795,52.110315 Z"
       id="rect5125-1-06-0-3-1-4-2-3"
       sodipodi:nodetypes="ccccc"
       inkscape:transform-center-x="-21.061594"
       inkscape:transform-center-y="-1.6063981" />
    <path
       style="fill:#aa0000;stroke:#ffffff;stroke-width:0.0529167;stroke-miterlimit:4;stroke-dasharray:none;stroke-opacity:1"
       d="m 26.868195,62.702644 2.902792,10.536005 16.126951,0.238887 -3.154744,-10.77489 z"
       id="rect5125-1-0-2-8-0"
       sodipodi:nodetypes="ccccc" />
    <path
       style="fill:#000080;stroke-width:0.176199;stroke-opacity:0.998188"
       d="m 26.868195,62.702644 0.862669,3.053368 15.978451,0.01841 -0.966121,-3.071777 c 0.21399,3.5e-5 -10.583333,-2e-6 -15.874999,-10e-7 z"
       id="rect5125-1-0-2-8-1-2"
       sodipodi:nodetypes="ccccc" />
    <path
       style="fill:#ffffff;stroke-width:0.202552;stroke-opacity:0.998188"
       d="m 27.730864,65.756012 0.996533,3.588825 15.889208,0.0546 -0.876878,-3.59881 z"
       id="rect5125-1-0-2-8-1-1-2"
       sodipodi:nodetypes="ccccc" />
    <path
       style="fill:#ffffff;stroke:#ffffff;stroke-width:0.079375;stroke-miterlimit:4;stroke-dasharray:none;stroke-opacity:1"
       d="M 52.941851,62.654442 49.87635,73.116982 33.48167,72.909655 36.725657,62.491736 Z m -14.393463,4.653402"
       id="rect5125-1-06-0-3-1-2-7"
       sodipodi:nodetypes="ccccc" />
    <path
       style="fill:#5f8dd3;stroke:none;stroke-width:0.079375;stroke-miterlimit:4;stroke-dasharray:none;stroke-opacity:1"
       d="M 50.228371,71.899205 49.87635,73.116982 33.48167,72.909655 33.854416,71.704947 Z"
       id="rect5125-1-06-0-3-1-2-7-8"
       sodipodi:nodetypes="ccccc" />
    <path
       style="fill:#5f8dd3;stroke:none;stroke-width:0.079375;stroke-miterlimit:4;stroke-dasharray:none;stroke-opacity:1"
       d="m 50.932413,69.463651 -0.352021,1.217777 -16.39468,-0.207327 0.372746,-1.204708 z"
       id="rect5125-1-06-0-3-1-2-7-8-90"
       sodipodi:nodetypes="ccccc" />
    <path
       style="fill:#5f8dd3;stroke:none;stroke-width:0.079375;stroke-miterlimit:4;stroke-dasharray:none;stroke-opacity:1"
       d="M 51.636455,67.028097 51.284434,68.245874 34.889754,68.038547 35.2625,66.833839 Z"
       id="rect5125-1-06-0-3-1-2-7-8-90-8"
       sodipodi:nodetypes="ccccc" />
    <path
       style="fill:#5f8dd3;stroke:none;stroke-width:0.079375;stroke-miterlimit:4;stroke-dasharray:none;stroke-opacity:1"
       d="M 52.403601,64.750303 52.05158,65.96808 35.6569,65.760753 36.029646,64.556045 Z"
       id="rect5125-1-06-0-3-1-2-7-8-90-8-4"
       sodipodi:nodetypes="ccccc" />
    <path
       style="fill:#5f8dd3;stroke:none;stroke-width:0.079375;stroke-miterlimit:4;stroke-dasharray:none;stroke-opacity:1"
       d="M 52.941851,62.654442 52.58983,63.872219 36.19515,63.664891 36.567896,62.460184 Z"
       id="rect5125-1-06-0-3-1-2-7-8-90-8-4-2"
       sodipodi:nodetypes="ccccc" />
    <path
       style="fill:#5f8dd3;fill-opacity:1;stroke:#ffffff;stroke-width:0.0478288;stroke-miterlimit:4;stroke-dasharray:none;stroke-opacity:1"
       d="m 41.803963,62.528234 -1.638358,5.651055 -5.275851,-0.140742 1.728176,-5.548676 z"
       id="rect5125-1-06-0-3-1-2-7-2"
       sodipodi:nodetypes="ccccc" />
    <path
       style="fill:#ffffff;fill-opacity:1;stroke:#ffffff;stroke-width:0.0198353;stroke-miterlimit:4;stroke-dasharray:none;stroke-opacity:1"
       d="m 41.136877,64.731408 -0.30334,0.969772 -5.176637,0.05957 0.372746,-1.204708 z"
       id="rect5125-1-06-0-3-1-2-7-2-6"
       sodipodi:nodetypes="ccccc" />
    <path
       style="fill:#ffffff;fill-opacity:1;stroke:#ffffff;stroke-width:0.0478288;stroke-miterlimit:4;stroke-dasharray:none;stroke-opacity:1"
       d="m 39.923908,62.466995 -1.638358,5.651055 -1.4896,-0.01453 1.728176,-5.548676 z"
       id="rect5125-1-06-0-3-1-2-7-2-5"
       sodipodi:nodetypes="ccccc" />
    <path
       id="rect28761"
       style="fill:#ff0000;fill-opacity:1;stroke:#ffffff;stroke-width:0.3;stroke-miterlimit:4;stroke-dasharray:none;stroke-opacity:1"
       d="M 111.84568,274.10914 118.29688,300 h 65.02343 l 7.7578,-25.10325 z"
       sodipodi:nodetypes="ccccc"
       transform="scale(0.26458333)" />
    <path
       sodipodi:type="star"
       style="fill:none;fill-opacity:1;stroke:#ffd503;stroke-width:0.755906;stroke-miterlimit:4;stroke-dasharray:none;stroke-opacity:1"
       id="path29067"
       inkscape:flatsided="false"
       sodipodi:sides="5"
       sodipodi:cx="75.891505"
       sodipodi:cy="245.88848"
       sodipodi:r1="3.951544"
       sodipodi:r2="1.975772"
       sodipodi:arg1="0.87605805"
       sodipodi:arg2="1.5043766"
       inkscape:rounded="0"
       inkscape:randomized="0"
       d="m 78.421222,248.92414 -2.398583,-1.06425 -2.236493,1.37256 0.270954,-2.61006 -1.996495,-1.70288 2.566042,-0.54886 1.002591,-2.425 1.314947,2.27084 2.61613,0.20415 -1.75336,1.95232 z"
       transform="matrix(0.26458333,0,0,0.26458333,12.315505,9.1473858)"
       inkscape:transform-center-x="0.021443449"
       inkscape:transform-center-y="-0.079224568" />
    <path
       style="fill:#ff0000;fill-opacity:1;stroke:none;stroke-width:0.264583px;stroke-linecap:butt;stroke-linejoin:miter;stroke-opacity:1"
       d="m 32.025373,76.608476 0.536384,-0.88346 0.725699,0.536385 -0.252417,0.44173 1.924677,1.167429 0.126208,0.220863 -0.0631,0.157761 -0.378629,0.157761 -1.798469,-1.262084 -0.59949,0.59949 z"
       id="path29844" />
    <path
       style="fill:#ffd503;fill-opacity:1;stroke:none;stroke-width:0.264583px;stroke-linecap:butt;stroke-linejoin:miter;stroke-opacity:1"
       d="m 32.561757,75.725014 -0.536384,0.883462 0.536384,-0.883462 0.725699,0.536387 -0.252417,0.44173 1.924677,1.167429 0.126208,0.220863 -0.0631,0.157761 -0.378629,0.15776 -1.798469,-1.262083 -0.59949,0.59949 -0.220863,-1.135875 0.536384,-0.883462"
       id="path30015" />
    <path
       style="fill:none;stroke:#ffd503;stroke-width:0.264583px;stroke-linecap:butt;stroke-linejoin:miter;stroke-opacity:1"
       d="m 33.38211,75.472599 0.851908,0.504833 0.0631,0.283969 c 0,0 0.09466,0.283969 0.09466,0.473282 0,0.189312 0.0631,0.252417 0,0.378626 -0.06311,0.126206 -0.126209,0.283967 -0.126209,0.283967 l -0.189312,0.315521 -0.09466,0.189314 -0.220863,0.0631 -0.189312,-0.0631 h -0.28397 -0.252418 l -0.15776,-0.06311"
       id="path30083" />
    <path
       style="fill:none;stroke:#ffd503;stroke-width:0.264583px;stroke-linecap:butt;stroke-linejoin:miter;stroke-opacity:1"
       d="m 32.498653,79.132641 v 0 l 0.536382,-1.230532 0.725699,0.0631"
       id="path30087" />
  </g>
</svg>
